<svg width="375" height="302" viewBox="0 0 375 302" fill="none" xmlns="http://www.w3.org/2000/svg">
<rect width="375" height="302" fill="#092734"/>
<g opacity="0.1">
<path d="M420 87C420 71.3727 416.922 55.8984 410.942 41.4607C404.961 27.0229 396.196 13.9045 385.146 2.85429C374.096 -8.19588 360.977 -16.9614 346.539 -22.9417C332.102 -28.922 316.627 -32 301 -32C285.373 -32 269.898 -28.922 255.461 -22.9417C241.023 -16.9614 227.904 -8.19587 216.854 2.8543C205.804 13.9045 197.039 27.0229 191.058 41.4607C185.078 55.8984 182 71.3727 182 87L240.416 87C240.416 79.044 241.983 71.1658 245.027 63.8154C248.072 56.465 252.535 49.7862 258.16 44.1604C263.786 38.5347 270.465 34.0721 277.815 31.0274C285.166 27.9828 293.044 26.4157 301 26.4157C308.956 26.4157 316.834 27.9828 324.185 31.0274C331.535 34.0721 338.214 38.5347 343.84 44.1604C349.465 49.7862 353.928 56.465 356.973 63.8154C360.017 71.1658 361.584 79.044 361.584 87H420Z" fill="#D9D9D9"/>
<path d="M420 87C420 102.627 416.922 118.102 410.942 132.539C404.961 146.977 396.196 160.096 385.146 171.146C374.096 182.196 360.977 190.961 346.539 196.942C332.102 202.922 316.627 206 301 206C285.373 206 269.898 202.922 255.461 196.942C241.023 190.961 227.904 182.196 216.854 171.146C205.804 160.096 197.039 146.977 191.058 132.539C185.078 118.102 182 102.627 182 87L240.416 87C240.416 94.956 241.983 102.834 245.027 110.185C248.072 117.535 252.535 124.214 258.16 129.84C263.786 135.465 270.465 139.928 277.815 142.973C285.166 146.017 293.044 147.584 301 147.584C308.956 147.584 316.834 146.017 324.185 142.973C331.535 139.928 338.214 135.465 343.84 129.84C349.465 124.214 353.928 117.535 356.973 110.185C360.017 102.834 361.584 94.956 361.584 87H420Z" fill="#D9D9D9"/>
<rect x="182" y="69.6023" width="238" height="36.1871" fill="#092734"/>
<circle cx="301.696" cy="87.6959" r="41.7544" fill="#D9D9D9"/>
</g>
</svg>
